<svg xmlns="http://www.w3.org/2000/svg" viewBox="0 0 32 32"><path fill="#d9d9db" d="m18 17.507-8.5-10h17z"/><path fill="#f05326" d="M23.111 11.493H12.889L18 17.507z"/><path fill="#f47956" d="m9.5 7.494 2.576 3.06a4.001 4.001 0 0 1-2.576.94c-2.194 0-4-1.806-4-4s1.806-4 4-4c2.193 0 3.998 1.803 4 3.996l-4 .004z"/><path d="M26.5 7h-3.364l1.203-3.007H26.5a.5.5 0 0 0 0-1H24a.5.5 0 0 0-.464.314L22.059 7H13.95c-.25-2.246-2.139-4.006-4.45-4.006-2.481 0-4.5 2.019-4.5 4.5s2.019 4.5 4.5 4.5c.896 0 1.762-.283 2.501-.779l5.499 6.469v10.323h-5a.5.5 0 0 0 0 1h11a.5.5 0 0 0 0-1h-5V17.684l8.381-9.86A.5.5 0 0 0 26.5 7zm-7 7.366a.5.5 0 0 0-.5.5c0 .176.096.323.233.412L18 16.728l-.252-.297a.49.49 0 0 0 .252-.424.5.5 0 0 0-.5-.5.492.492 0 0 0-.38.186L13.981 12h8.038l-2.152 2.532a.493.493 0 0 0-.367-.166zm-10-3.372c-1.93 0-3.5-1.57-3.5-3.5s1.57-3.5 3.5-3.5a3.506 3.506 0 0 1 3.464 2.996l-2.256.003.56-.56a.5.5 0 0 0-.707-.707l-.561.56v-.792a.5.5 0 0 0-1 0v.793l-.561-.561a.5.5 0 0 0-.707.707l.561.561H7.5a.5.5 0 0 0 0 1h.793l-.561.56a.5.5 0 0 0 .708.708L9 8.701v.793a.5.5 0 0 0 1 0v-.63l1.349 1.602a3.512 3.512 0 0 1-1.849.528zM22.869 11h-9.738l-2.55-3h14.838l-2.55 3z"/><circle cx="16.5" cy="13.507" r=".5"/><circle cx="18.5" cy="13.007" r=".5"/></svg>